<svg xmlns="http://www.w3.org/2000/svg" fill="#3d85c5" viewBox="0 0 512 512">
  <path d="m377.91 290.092.034.035c2.738 2.947 4.42 6.88 4.42 11.208 0 9.073-7.355 16.44-16.44 16.44-4.72 0-8.978-1.996-11.972-5.186l-.012-.023-1.635-2.042-.024-.024-24.096-30.293-24.49 30.804a16.416 16.416 0 0 1-13.284 6.764c-9.072 0-16.427-7.367-16.427-16.44 0-4.304 1.659-8.226 4.362-11.162l28.91-36.267-28.4-35.7-2.402-3.028-.023-.023a16.323 16.323 0 0 1-2.447-8.632c0-9.073 7.355-16.44 16.427-16.44a16.38 16.38 0 0 1 11.996 5.209l1.636 2.042.035.058 24.107 30.258 23.934-30.026 2.076-2.61.024-.024a16.376 16.376 0 0 1 11.706-4.907c9.083 0 16.439 7.367 16.439 16.44a16.32 16.32 0 0 1-2.448 8.632l-.023.023-2.402 3.028-28.388 35.711zm18.025-179.629L91.554 137.662c-15.744 1.407-27.814 14.606-27.826 30.409l-.104 172.264c0 7.92 3 15.128 7.942 20.559l.057.058 3.117 2.977.046.035 34.733 33.06a14.743 14.743 0 0 0 10.813 4.71c8.152 0 14.768-6.606 14.768-14.769v-16.059h.01V256.35c-.028-.78-.059-1.558-.059-2.345 0-.787.031-1.566.06-2.346v-45.096c0-8.346 6.256-15.618 14.577-16.269 6.992-.547 13.152 3.525 15.76 9.473 10.144-6.219 22.163-9.677 35.016-9.313 34.082.963 61.64 29.273 61.734 63.37.098 35.196-28.402 63.758-63.573 63.758a63.256 63.256 0 0 1-31.849-8.562v44.912c0 9.375 7.6 16.975 16.974 16.975h193.01c20.384 0 37.814-14.663 41.314-34.746l29.57-169.462c5.441-31.187-20.175-59.05-51.71-56.235"/>
  <path d="M197.999 285.664c17.75 0 31.95-14.2 31.95-31.947 0-17.48-14.2-31.677-31.95-31.677-17.478 0-31.674 14.197-31.674 31.677 0 17.746 14.196 31.947 31.674 31.947"/>
</svg>
