<svg xmlns="http://www.w3.org/2000/svg" fill="#3d85c5" viewBox="0 0 125 24">
  <path d="M13.878 3.893c.263.25.395.559.395.928v12.354c0 .37-.121.68-.362.928-.243.25-.563.374-.96.374-.4 0-.723-.121-.971-.363-.25-.242-.374-.555-.374-.939V8.577l-3.52 5.376c-.142.17-.306.31-.49.416a.99.99 0 0 1-.577.139.947.947 0 0 1-.555-.139 1.814 1.814 0 0 1-.49-.416l-3.52-5.568v8.79c0 .384-.115.697-.342.939-.227.242-.526.363-.896.363-.356 0-.647-.125-.875-.374-.227-.249-.341-.558-.341-.928V4.821c0-.355.131-.661.395-.917.263-.256.58-.384.95-.384.213 0 .426.053.64.16.212.107.376.245.49.416l4.65 7.148 4.78-7.148c.114-.17.267-.31.459-.416.192-.107.387-.16.586-.16.356 0 .665.125.928.373"/>
  <path d="M24.375 10.913a3.221 3.221 0 0 0-1.174-1.27 3.079 3.079 0 0 0-1.632-.448 3.08 3.08 0 0 0-1.632.448 3.22 3.22 0 0 0-1.173 1.27c-.292.548-.438 1.17-.438 1.867 0 .697.146 1.316.438 1.856.291.54.683.96 1.173 1.259a3.08 3.08 0 0 0 1.632.448c.598 0 1.142-.15 1.632-.448.491-.299.882-.718 1.174-1.259.291-.54.437-1.16.437-1.856 0-.697-.146-1.32-.437-1.867m2.23 4.928a5.425 5.425 0 0 1-2.102 2.102 5.898 5.898 0 0 1-2.934.747c-1.08 0-2.062-.249-2.944-.747a5.443 5.443 0 0 1-2.09-2.102c-.513-.903-.769-1.923-.769-3.061s.256-2.158.768-3.062a5.523 5.523 0 0 1 2.091-2.112c.882-.505 1.863-.758 2.944-.758 1.067 0 2.045.253 2.934.758a5.504 5.504 0 0 1 2.101 2.112c.512.904.768 1.924.768 3.062s-.256 2.158-.768 3.061"/>
  <path d="M34.7 16.354c.164.192.246.444.246.757 0 .384-.21.708-.63.97-.419.264-.892.396-1.418.396-.882 0-1.625-.189-2.23-.566-.604-.377-.906-1.177-.906-2.4V9.622h-.981c-.342 0-.627-.114-.854-.341a1.157 1.157 0 0 1-.341-.854c0-.327.113-.6.341-.821.227-.22.512-.33.854-.33h.98V5.91c0-.37.125-.68.374-.929a1.26 1.26 0 0 1 .928-.373c.356 0 .654.125.896.373.242.25.363.559.363.929v1.365h1.515c.341 0 .625.114.853.341.228.228.342.513.342.854 0 .327-.114.6-.342.821-.228.221-.512.331-.853.331h-1.515v5.782c0 .299.078.516.235.65.156.136.37.204.64.204.113 0 .27-.029.47-.086.17-.07.333-.107.49-.107.199 0 .38.097.544.289"/>
  <path d="M44.387 10.913a3.222 3.222 0 0 0-1.173-1.27 3.08 3.08 0 0 0-1.632-.448c-.598 0-1.142.15-1.633.448-.49.3-.882.722-1.173 1.27-.292.548-.437 1.17-.437 1.867 0 .697.145 1.316.437 1.856.291.54.683.96 1.173 1.259.491.299 1.035.448 1.633.448a3.08 3.08 0 0 0 1.632-.448c.49-.299.881-.718 1.173-1.259.291-.54.437-1.16.437-1.856 0-.697-.146-1.32-.437-1.867m2.23 4.928a5.426 5.426 0 0 1-2.102 2.102 5.898 5.898 0 0 1-2.933.747c-1.082 0-2.063-.249-2.945-.747a5.444 5.444 0 0 1-2.09-2.102c-.512-.903-.769-1.923-.769-3.061s.257-2.158.769-3.062a5.524 5.524 0 0 1 2.09-2.112c.882-.505 1.863-.758 2.945-.758 1.066 0 2.044.253 2.933.758a5.505 5.505 0 0 1 2.102 2.112c.512.904.768 1.924.768 3.062s-.256 2.158-.768 3.061"/>
  <path d="M55.673 7.211c.292.242.438.526.438.853 0 .441-.114.772-.342.993-.227.22-.498.33-.81.33-.214 0-.456-.05-.726-.15a10.04 10.04 0 0 0-.288-.084 1.74 1.74 0 0 0-.48-.064c-.37 0-.725.114-1.067.341-.341.228-.622.573-.842 1.035-.221.462-.331 1.013-.331 1.653v5.057c0 .37-.121.68-.363.928a1.225 1.225 0 0 1-.917.374c-.37 0-.676-.125-.918-.374a1.278 1.278 0 0 1-.362-.928V8.363c0-.37.12-.679.362-.928.242-.248.548-.373.918-.373s.675.125.917.373c.242.25.363.559.363.928v.278a3.234 3.234 0 0 1 1.408-1.334 4.33 4.33 0 0 1 1.963-.459c.427 0 .786.121 1.077.363"/>
  <path d="M59.119 18.103a1.225 1.225 0 0 1-.918.374c-.37 0-.675-.125-.917-.374a1.278 1.278 0 0 1-.363-.928V8.363c0-.37.12-.679.363-.928.242-.249.547-.373.917-.373s.676.124.918.373c.241.25.362.559.362.928v8.812c0 .37-.12.68-.362.928M57.156 5.44c-.2-.156-.299-.434-.299-.832v-.405c0-.398.107-.676.32-.832.214-.157.555-.235 1.024-.235.498 0 .846.078 1.046.235.199.156.298.434.298.832v.405c0 .413-.103.693-.309.843-.206.15-.558.224-1.056.224-.484 0-.825-.078-1.024-.235"/>
  <path d="M60.399 16.066c0-.37.184-.683.554-.94.2-.127.406-.191.619-.191.299 0 .583.135.853.405.427.441.871.768 1.334.981.462.214 1.02.32 1.675.32 1.11-.042 1.664-.461 1.664-1.258 0-.413-.189-.726-.566-.939-.377-.213-.963-.427-1.76-.64-.825-.227-1.497-.455-2.016-.683a3.56 3.56 0 0 1-1.344-1.035c-.377-.462-.565-1.084-.565-1.866 0-.683.195-1.277.586-1.782a3.86 3.86 0 0 1 1.536-1.174 4.966 4.966 0 0 1 2.017-.416c.725 0 1.45.136 2.176.406.725.27 1.294.669 1.706 1.194.185.228.278.484.278.769a.99.99 0 0 1-.405.81c-.2.157-.427.235-.683.235-.313 0-.57-.1-.768-.299a2.712 2.712 0 0 0-.992-.746 3.281 3.281 0 0 0-1.376-.278c-1.081 0-1.622.392-1.622 1.174 0 .313.1.565.299.757.199.192.451.342.757.448.306.107.736.239 1.291.395a14.14 14.14 0 0 1 1.92.661c.512.228.946.576 1.301 1.046.356.47.534 1.088.534 1.856 0 .697-.206 1.305-.619 1.824-.412.52-.942.914-1.59 1.185a5.135 5.135 0 0 1-1.994.405 7.23 7.23 0 0 1-2.624-.47 4.36 4.36 0 0 1-1.984-1.514 1.038 1.038 0 0 1-.192-.64"/>
  <path d="M76.73 16.354c.164.192.246.444.246.757 0 .384-.21.708-.63.97-.42.264-.892.396-1.419.396-.882 0-1.625-.189-2.229-.566-.605-.377-.907-1.177-.907-2.4V9.622h-.981c-.342 0-.626-.114-.853-.341a1.157 1.157 0 0 1-.342-.854c0-.327.114-.6.342-.821.227-.22.511-.33.853-.33h.981V5.91c0-.37.125-.68.374-.929a1.26 1.26 0 0 1 .928-.373c.355 0 .654.125.896.373.242.25.362.559.362.929v1.365h1.515c.342 0 .626.114.854.341.227.228.341.513.341.854 0 .327-.114.6-.341.821-.228.221-.512.331-.854.331h-1.515v5.782c0 .299.078.516.235.65.157.136.37.204.64.204.114 0 .27-.029.47-.086.17-.07.334-.107.49-.107.2 0 .38.097.544.289"/>
  <path d="M85.744 15.33c.583-.676.875-1.526.875-2.55 0-1.024-.292-1.878-.875-2.56-.583-.683-1.337-1.025-2.261-1.025-.91 0-1.657.342-2.24 1.025-.584.682-.875 1.536-.875 2.56s.288 1.874.864 2.55c.576.675 1.326 1.013 2.25 1.013.925 0 1.679-.338 2.262-1.014m2.966-8.118c.241.242.363.555.363.939v9.025c0 .37-.122.68-.363.928a1.225 1.225 0 0 1-.918.374c-.37 0-.672-.121-.906-.363a1.341 1.341 0 0 1-.374-.918c-.355.413-.835.765-1.44 1.056a4.345 4.345 0 0 1-1.91.438c-.98 0-1.87-.252-2.666-.758-.797-.504-1.426-1.205-1.888-2.101-.463-.896-.694-1.913-.694-3.051 0-1.138.228-2.158.683-3.062.455-.903 1.077-1.607 1.867-2.112a4.753 4.753 0 0 1 2.613-.758c.683 0 1.323.125 1.92.374a5.05 5.05 0 0 1 1.515.95V8.15c0-.37.121-.68.363-.928.242-.249.547-.374.917-.374s.676.121.918.363"/>
  <path d="m119.283 14.766.003.002a1.332 1.332 0 0 1-.975 2.243c-.383 0-.729-.162-.971-.42l-.002-.002-.132-.166h-.002l-1.955-2.458-1.986 2.499a1.332 1.332 0 0 1-2.41-.785c0-.35.134-.668.353-.906l2.346-2.942-2.304-2.896-.195-.246h-.001a1.334 1.334 0 0 1 2.107-1.611l.133.164.002.006 1.956 2.454 1.941-2.435.169-.212.001-.001a1.334 1.334 0 0 1 2.085 1.636h-.002l-.194.246-2.303 2.897zM120.745.194 96.054 2.4a2.479 2.479 0 0 0-2.257 2.467l-.008 13.974c0 .643.243 1.228.644 1.668l.005.005.253.242.004.003 2.817 2.681a1.198 1.198 0 0 0 2.075-.816v-1.302h.002v-9.293a4.498 4.498 0 0 1 0-.38V7.99c0-.677.507-1.267 1.182-1.32a1.287 1.287 0 0 1 1.279.769 5.136 5.136 0 0 1 2.84-.756c2.765.078 5 2.375 5.008 5.14a5.157 5.157 0 0 1-7.74 4.478v3.644c0 .76.616 1.377 1.377 1.377h15.657a3.402 3.402 0 0 0 3.351-2.819l2.399-13.747c.441-2.53-1.637-4.79-4.195-4.562"/>
  <path d="M104.689 14.406a2.581 2.581 0 0 0 2.591-2.591 2.576 2.576 0 0 0-2.591-2.57 2.571 2.571 0 0 0-2.57 2.57 2.576 2.576 0 0 0 2.57 2.591"/>
</svg>
